<?xml version="1.0" encoding="UTF-8" standalone="no"?>
<!-- Created with Inkscape (http://www.inkscape.org/) -->

<svg
   xmlns:dc="http://purl.org/dc/elements/1.1/"
   xmlns:cc="http://creativecommons.org/ns#"
   xmlns:rdf="http://www.w3.org/1999/02/22-rdf-syntax-ns#"
   xmlns:svg="http://www.w3.org/2000/svg"
   xmlns="http://www.w3.org/2000/svg"
   version="1.1"
   width="512"
   height="512"
   viewBox="0 0 512 512"
   id="Capa_1"
   xml:space="preserve"><metadata
   id="metadata9"><rdf:RDF><cc:Work
       rdf:about=""><dc:format>image/svg+xml</dc:format><dc:type
         rdf:resource="http://purl.org/dc/dcmitype/StillImage" /><dc:title></dc:title></cc:Work></rdf:RDF></metadata><defs
   id="defs7" />
<path
   d="m 160.504,512 c -34.123,-71.004 -15.951,-111.689 10.275,-150.021 28.72,-41.979 36.122,-83.533 36.122,-83.533 0,0 22.577,29.35 13.546,75.254 39.886,-44.4 47.413,-115.14 41.391,-142.232 90.157,63.005 128.688,199.427 76.761,300.532 276.187,-156.266 68.699,-390.086 32.577,-416.425 12.041,26.338 14.324,70.925 -10,92.563 C 320,32 218.19,0 218.19,0 230.231,80.522 174.542,168.572 120.842,234.365 118.955,202.257 116.951,180.101 100.067,149.375 96.277,207.703 51.701,255.249 39.63,313.689 23.279,392.832 51.878,450.779 160.504,512 z"
   id="path3"
   style="fill:#a0a0a0;fill-opacity:1" />
</svg>