<?xml version="1.0" encoding="UTF-8" standalone="no"?>
<!-- Created with Inkscape (http://www.inkscape.org/) -->

<svg
   xmlns:dc="http://purl.org/dc/elements/1.1/"
   xmlns:cc="http://creativecommons.org/ns#"
   xmlns:rdf="http://www.w3.org/1999/02/22-rdf-syntax-ns#"
   xmlns:svg="http://www.w3.org/2000/svg"
   xmlns="http://www.w3.org/2000/svg"
   version="1.1"
   width="512"
   height="512"
   viewBox="0 0 512 512"
   id="Capa_1"
   xml:space="preserve"><metadata
   id="metadata9"><rdf:RDF><cc:Work
       rdf:about=""><dc:format>image/svg+xml</dc:format><dc:type
         rdf:resource="http://purl.org/dc/dcmitype/StillImage" /><dc:title></dc:title></cc:Work></rdf:RDF></metadata><defs
   id="defs7" />
<path
   d="m 68.147,375.465 c -37.598,0 -68.146,30.667 -68.146,68.038 0,37.577 30.55,67.901 68.146,67.901 37.733,0 68.247,-30.324 68.247,-67.901 -0.001,-37.371 -30.512,-68.038 -68.247,-68.038 z M 0.078,173.965 v 98.129 c 63.892,0 123.979,24.986 169.229,70.256 45.192,45.159 70.141,105.519 70.141,169.65 h 98.561 C 338.008,325.59 186.368,173.965 0.078,173.965 z M 0.194,0 v 98.178 c 227.891,0 413.378,185.667 413.378,413.822 H 512 C 512,229.765 282.373,0 0.194,0 z"
   id="path3"
   style="fill:#ffbb55;fill-opacity:1" />
</svg>