<?xml version="1.0" encoding="UTF-8" standalone="no"?>
<!-- Created with Inkscape (http://www.inkscape.org/) -->

<svg
   xmlns:dc="http://purl.org/dc/elements/1.1/"
   xmlns:cc="http://creativecommons.org/ns#"
   xmlns:rdf="http://www.w3.org/1999/02/22-rdf-syntax-ns#"
   xmlns:svg="http://www.w3.org/2000/svg"
   xmlns="http://www.w3.org/2000/svg"
   version="1.1"
   width="22"
   height="22"
   viewBox="0 0 22 22"
   id="svg2">
  <metadata
     id="metadata12">
    <rdf:RDF>
      <cc:Work
         rdf:about="">
        <dc:format>image/svg+xml</dc:format>
        <dc:type
           rdf:resource="http://purl.org/dc/dcmitype/StillImage" />
        <dc:title></dc:title>
      </cc:Work>
    </rdf:RDF>
  </metadata>
  <defs
     id="defs6" />
  <g
     id="miu"
     style="fill:none;stroke:none">
    <path
       d="M 0,11 C 0,4.9248674 4.9248674,0 11,0 17.075132,0 22,4.9248674 22,11 22,17.075132 17.075132,22 11,22 4.9248674,22 0,17.075132 0,11 z m 21,0 C 21,5.4771522 16.522848,1 11,1 5.4771522,1 1,5.4771522 1,11 1,16.522848 5.4771522,21 11,21 16.522848,21 21,16.522848 21,11 z M 12.145436,11.420562 8.2563483,15.309649 9.6767767,16.730078 14.980078,11.426777 9.3232233,5.7699224 7.9090097,7.184136 12.145436,11.420562 z"
       id="circle_next_arrow_disclosure_outline_stroke"
       style="fill:#ffffff;fill-opacity:0.66666667" />
  </g>
</svg>
