<?xml version="1.0" encoding="UTF-8" standalone="no"?>
<svg
   xmlns:dc="http://purl.org/dc/elements/1.1/"
   xmlns:cc="http://creativecommons.org/ns#"
   xmlns:rdf="http://www.w3.org/1999/02/22-rdf-syntax-ns#"
   xmlns:svg="http://www.w3.org/2000/svg"
   xmlns="http://www.w3.org/2000/svg"
   xmlns:sodipodi="http://sodipodi.sourceforge.net/DTD/sodipodi-0.dtd"
   xmlns:inkscape="http://www.inkscape.org/namespaces/inkscape"
   height="22px"
   version="1.1"
   viewBox="0 0 22 22"
   width="22px"
   id="svg2"
   inkscape:version="0.48.4 r9939"
   sodipodi:docname="pause_active.svg">
  <metadata
     id="metadata12">
    <rdf:RDF>
      <cc:Work
         rdf:about="">
        <dc:format>image/svg+xml</dc:format>
        <dc:type
           rdf:resource="http://purl.org/dc/dcmitype/StillImage" />
        <dc:title></dc:title>
      </cc:Work>
    </rdf:RDF>
  </metadata>
  <sodipodi:namedview
     pagecolor="#ffffff"
     bordercolor="#666666"
     borderopacity="1"
     objecttolerance="10"
     gridtolerance="10"
     guidetolerance="10"
     inkscape:pageopacity="0"
     inkscape:pageshadow="2"
     inkscape:window-width="1430"
     inkscape:window-height="807"
     id="namedview10"
     showgrid="false"
     inkscape:zoom="15.170654"
     inkscape:cx="-2.4489056"
     inkscape:cy="9.1909061"
     inkscape:window-x="0"
     inkscape:window-y="0"
     inkscape:window-maximized="0"
     inkscape:current-layer="miu" />
  <defs
     id="defs6" />
  <g
     id="miu">
    <path
       d="M 22,11 C 22,4.9248674 17.075133,0 11,0 4.9248675,0 0,4.9248674 0,11 0,17.075132 4.9248675,22 11,22 17.075133,22 22,17.075132 22,11 z M 1,11 C 1,5.4771522 5.4771522,1 11,1 16.522848,1 21,5.4771522 21,11 21,16.522848 16.522848,21 11,21 5.4771522,21 1,16.522848 1,11 z"
       id="circle_next_arrow_disclosure_outline_stroke"
       inkscape:connector-curvature="0"
       style="fill:#ffffff;fill-opacity:0.66666669"
       sodipodi:nodetypes="ssssssssss" />
    <path
       style="fill:#ffffff;fill-opacity:0.66666669;stroke:none"
       d="m 7.1714849,5.3804236 0,10.7391234 2.8040843,0 0,-10.7391234 z"
       id="path3770"
       inkscape:connector-curvature="0" />
    <path
       style="fill:#ffffff;fill-opacity:0.66666669;stroke:none"
       d="m 12.242722,5.2268428 0,10.7391242 2.804084,0 0,-10.7391242 z"
       id="path3770-1"
       inkscape:connector-curvature="0" />
  </g>
</svg>
