<?xml version="1.0" encoding="UTF-8" standalone="no"?>
<svg
   xmlns:dc="http://purl.org/dc/elements/1.1/"
   xmlns:cc="http://creativecommons.org/ns#"
   xmlns:rdf="http://www.w3.org/1999/02/22-rdf-syntax-ns#"
   xmlns:svg="http://www.w3.org/2000/svg"
   xmlns="http://www.w3.org/2000/svg"
   xmlns:sodipodi="http://sodipodi.sourceforge.net/DTD/sodipodi-0.dtd"
   xmlns:inkscape="http://www.inkscape.org/namespaces/inkscape"
   height="22px"
   version="1.1"
   viewBox="0 0 22 22"
   width="22px"
   id="svg2"
   inkscape:version="0.48.4 r9939"
   sodipodi:docname="prev2.svg">
  <metadata
     id="metadata12">
    <rdf:RDF>
      <cc:Work
         rdf:about="">
        <dc:format>image/svg+xml</dc:format>
        <dc:type
           rdf:resource="http://purl.org/dc/dcmitype/StillImage" />
      </cc:Work>
    </rdf:RDF>
  </metadata>
  <sodipodi:namedview
     pagecolor="#ffffff"
     bordercolor="#666666"
     borderopacity="1"
     objecttolerance="10"
     gridtolerance="10"
     guidetolerance="10"
     inkscape:pageopacity="0"
     inkscape:pageshadow="2"
     inkscape:window-width="710"
     inkscape:window-height="480"
     id="namedview10"
     showgrid="false"
     inkscape:zoom="10.727273"
     inkscape:cx="11"
     inkscape:cy="11"
     inkscape:window-x="0"
     inkscape:window-y="0"
     inkscape:window-maximized="0"
     inkscape:current-layer="miu" />
  <title
     id="title4" />
  <defs
     id="defs6" />
  <g
     fill="none"
     fill-rule="evenodd"
     id="miu"
     stroke="none"
     stroke-width="1">
    <path
       d="M 22,11 C 22,4.9248674 17.075133,0 11,0 4.9248675,0 0,4.9248674 0,11 0,17.075132 4.9248675,22 11,22 17.075133,22 22,17.075132 22,11 z M 1,11 C 1,5.4771522 5.4771522,1 11,1 16.522848,1 21,5.4771522 21,11 21,16.522848 16.522848,21 11,21 5.4771522,21 1,16.522848 1,11 z m 8.8545644,0.420562 3.8890876,3.889087 -1.420429,1.420429 L 7.0199224,11.426777 12.676777,5.7699224 14.09099,7.184136 9.8545644,11.420562 z"
       id="circle_next_arrow_disclosure_outline_stroke"
       inkscape:connector-curvature="0"
       style="fill:#ffffff;fill-opacity:0.26666668" />
  </g>
</svg>
