<?xml version="1.0" encoding="UTF-8" standalone="no"?>
<!-- Created with Inkscape (http://www.inkscape.org/) -->

<svg
   xmlns:dc="http://purl.org/dc/elements/1.1/"
   xmlns:cc="http://creativecommons.org/ns#"
   xmlns:rdf="http://www.w3.org/1999/02/22-rdf-syntax-ns#"
   xmlns:svg="http://www.w3.org/2000/svg"
   xmlns="http://www.w3.org/2000/svg"
   version="1.1"
   width="22"
   height="22"
   viewBox="0 0 22 22"
   id="svg2">
  <metadata
     id="metadata12">
    <rdf:RDF>
      <cc:Work
         rdf:about="">
        <dc:format>image/svg+xml</dc:format>
        <dc:type
           rdf:resource="http://purl.org/dc/dcmitype/StillImage" />
        <dc:title></dc:title>
      </cc:Work>
    </rdf:RDF>
  </metadata>
  <defs
     id="defs6" />
  <g
     id="miu"
     style="fill:none;stroke:none">
    <path
       d="M 22,11 C 22,4.9248674 17.075133,0 11,0 4.9248675,0 0,4.9248674 0,11 0,17.075132 4.9248675,22 11,22 17.075133,22 22,17.075132 22,11 z M 1,11 C 1,5.4771522 5.4771522,1 11,1 16.522848,1 21,5.4771522 21,11 21,16.522848 16.522848,21 11,21 5.4771522,21 1,16.522848 1,11 z m 8.8545644,0.420562 3.8890876,3.889087 -1.420429,1.420429 L 7.0199224,11.426777 12.676777,5.7699224 14.09099,7.184136 9.8545644,11.420562 z"
       id="circle_next_arrow_disclosure_outline_stroke"
       style="fill:#ffffff;fill-opacity:0.66666667" />
  </g>
</svg>
