<?xml version="1.0" encoding="UTF-8" standalone="no"?>
<!-- Created with Inkscape (http://www.inkscape.org/) -->

<svg
   xmlns:dc="http://purl.org/dc/elements/1.1/"
   xmlns:cc="http://creativecommons.org/ns#"
   xmlns:rdf="http://www.w3.org/1999/02/22-rdf-syntax-ns#"
   xmlns:svg="http://www.w3.org/2000/svg"
   xmlns="http://www.w3.org/2000/svg"
   xmlns:xlink="http://www.w3.org/1999/xlink"
   xmlns:sodipodi="http://sodipodi.sourceforge.net/DTD/sodipodi-0.dtd"
   xmlns:inkscape="http://www.inkscape.org/namespaces/inkscape"
   version="1.1"
   width="64"
   height="64"
   id="svg2985"
   inkscape:version="0.48.4 r9939"
   sodipodi:docname="polo.svg">
  <sodipodi:namedview
     pagecolor="#ffffff"
     bordercolor="#666666"
     borderopacity="1"
     objecttolerance="10"
     gridtolerance="10"
     guidetolerance="10"
     inkscape:pageopacity="0"
     inkscape:pageshadow="2"
     inkscape:window-width="1680"
     inkscape:window-height="987"
     id="namedview23"
     showgrid="false"
     inkscape:zoom="11.313708"
     inkscape:cx="-12.869951"
     inkscape:cy="30.057165"
     inkscape:window-x="-8"
     inkscape:window-y="-8"
     inkscape:window-maximized="1"
     inkscape:current-layer="layer4" />
  <defs
     id="defs2987" />
  <metadata
     id="metadata2990">
    <rdf:RDF>
      <cc:Work
         rdf:about="">
        <dc:format>image/svg+xml</dc:format>
        <dc:type
           rdf:resource="http://purl.org/dc/dcmitype/StillImage" />
        <dc:title />
      </cc:Work>
    </rdf:RDF>
  </metadata>
  <g
     id="layer1"
     style="display:none">
    <image
       xlink:href="file:///C:/Users/Rapha%C3%ABl/Desktop/polo.png"
       x="6.0411716"
       y="3.7159586"
       width="54"
       height="55"
       id="image3021" />
  </g>
  <g
     id="layer3"
     style="display:none">
    <image
       xlink:href="file:///C:/Users/Rapha%C3%ABl/Desktop/polobase.png"
       x="6.1697369"
       y="3.8445234"
       width="54"
       height="55"
       id="image3033"
       style="fill:#ffffff" />
  </g>
  <g
     id="layer4"
     style="display:inline">
    <path
       d="m 30.341309,5.2458547 c 1.928473,0.021428 3.468968,-0.03474 5.397441,-0.013312 0.698512,-0.00378 0.519688,-0.03938 2.953102,2.2760575 3.134461,1.1609119 7.156902,2.4903286 10.291363,3.6512408 3.685526,4.499769 7.371053,8.999541 11.056579,13.49931 -2.742717,2.657007 -5.485435,5.314014 -8.228152,7.971021 -1.371358,-1.242792 -2.742717,-2.485586 -4.114075,-3.72838 0,9.85664 0,19.713279 0,29.569919 -9.68522,-0.08571 -19.370441,-0.171419 -29.055661,-0.257129 0,-9.642365 0,-19.284731 0,-28.927096 -1.371359,1.028519 -2.357022,2.057037 -3.728381,3.085556 C 12.213663,29.93031 9.5138003,26.973318 6.8139381,24.530586 10.54232,19.902251 13.885006,15.788174 17.613387,11.159839 20.956074,9.9170452 24.29876,8.6742513 27.641447,7.4314575 29.408752,5.9374953 29.464062,5.4597309 30.341309,5.2458547 z"
       id="path3055"
       style="fill:#222222;stroke:#222222;stroke-width:1px;stroke-linecap:butt;stroke-linejoin:miter;stroke-opacity:1;fill-opacity:1" />
  </g>
  <g
     id="layer9"
     style="display:inline">
    <path
       d="m 30.821477,5.2364407 5.828925,-0.013317 C 37.567644,5.93471 38.316834,7.0735772 38.28019,7.1743275 37.876527,8.6222113 36.358752,10.434928 35.465918,11.412888 35.167709,10.619162 35.04211,9.9177602 34.384149,9.190107 l -2.628626,-0.00695 2.635579,-0.096424 c 1.385374,0.1641095 3.1847,-2.9886374 1.6357,-2.9071626 l -5.139092,0.032141 z"
       id="path3876"
       style="fill:#ffffff;fill-opacity:1;stroke:#ffffff;stroke-width:1px;stroke-linecap:butt;stroke-linejoin:miter;stroke-opacity:1" />
  </g>
  <g
     id="g3888"
     style="display:inline">
    <path
       d="m 35.578426,5.3046225 -6.078924,-0.070132 c -0.917242,0.7115829 -1.68916,1.8390865 -1.652516,1.9398365 0.403663,1.447884 1.921438,3.260601 2.814272,4.238561 0.298209,-0.793726 0.423808,-1.495128 1.081769,-2.222781 l 2.628626,-0.0069 -2.635579,-0.09642 C 30.3507,9.250896 28.66501,6.1322402 30.21401,6.213715 l 5.116365,-0.024677 z"
       id="path3892"
       style="fill:#ffffff;fill-opacity:1;stroke:#ffffff;stroke-width:1px;stroke-linecap:butt;stroke-linejoin:miter;stroke-opacity:1" />
  </g>
  <g
     id="layer11"
     style="display:inline">
    <path
       d="m 33.025485,9.6727818 0,15.9044362"
       id="path3897"
       style="fill:none;stroke:#ffffff;stroke-width:1.7721802px;stroke-linecap:butt;stroke-linejoin:miter;stroke-opacity:1" />
  </g>
  <g
     id="layer8"
     style="display:inline">
    <path
       d="M 6.4163946,23.779403 15.61221,32.69213"
       id="path3867"
       style="fill:#ffffff;stroke:#ffffff;stroke-width:3;stroke-linecap:butt;stroke-linejoin:miter;stroke-miterlimit:4;stroke-opacity:1;stroke-dasharray:none" />
  </g>
  <g
     id="g3869"
     style="display:inline">
    <path
       d="m 50.780031,32.510312 9.195815,-8.912727"
       id="path3871"
       style="fill:#ffffff;stroke:#ffffff;stroke-width:3;stroke-linecap:butt;stroke-linejoin:miter;stroke-miterlimit:4;stroke-opacity:1;stroke-dasharray:none" />
  </g>
</svg>
